<mxfile host="65bd71144e">
    <diagram id="Va_T8hlWNh5A7PyOqTzy" name="use-case">
        <mxGraphModel dx="759" dy="501" grid="1" gridSize="10" guides="1" tooltips="1" connect="1" arrows="1" fold="1" page="1" pageScale="1" pageWidth="850" pageHeight="1100" math="0" shadow="0">
            <root>
                <mxCell id="0"/>
                <mxCell id="1" parent="0"/>
                <mxCell id="4" style="edgeStyle=none;html=1;entryX=-0.013;entryY=0.674;entryDx=0;entryDy=0;entryPerimeter=0;" edge="1" parent="1" source="2" target="3">
                    <mxGeometry relative="1" as="geometry"/>
                </mxCell>
                <mxCell id="7" style="edgeStyle=none;html=1;entryX=-0.007;entryY=0.674;entryDx=0;entryDy=0;entryPerimeter=0;" edge="1" parent="1" source="2" target="5">
                    <mxGeometry relative="1" as="geometry"/>
                </mxCell>
                <mxCell id="8" style="edgeStyle=none;html=1;entryX=0.005;entryY=0.4;entryDx=0;entryDy=0;entryPerimeter=0;" edge="1" parent="1" source="2" target="6">
                    <mxGeometry relative="1" as="geometry"/>
                </mxCell>
                <mxCell id="2" value="User&lt;br&gt;" style="shape=umlActor;verticalLabelPosition=bottom;verticalAlign=top;html=1;" vertex="1" parent="1">
                    <mxGeometry x="80" y="210" width="30" height="60" as="geometry"/>
                </mxCell>
                <mxCell id="3" value="View a verse" style="ellipse;whiteSpace=wrap;html=1;" vertex="1" parent="1">
                    <mxGeometry x="230" y="20" width="140" height="70" as="geometry"/>
                </mxCell>
                <mxCell id="5" value="View a word" style="ellipse;whiteSpace=wrap;html=1;" vertex="1" parent="1">
                    <mxGeometry x="230" y="130" width="140" height="70" as="geometry"/>
                </mxCell>
                <mxCell id="11" style="edgeStyle=none;html=1;entryX=0;entryY=0.5;entryDx=0;entryDy=0;" edge="1" parent="1" source="6" target="9">
                    <mxGeometry relative="1" as="geometry"/>
                </mxCell>
                <mxCell id="13" style="edgeStyle=none;html=1;entryX=0;entryY=0.5;entryDx=0;entryDy=0;" edge="1" parent="1" source="6" target="12">
                    <mxGeometry relative="1" as="geometry"/>
                </mxCell>
                <mxCell id="15" style="edgeStyle=none;html=1;entryX=0;entryY=0.5;entryDx=0;entryDy=0;" edge="1" parent="1" source="6" target="14">
                    <mxGeometry relative="1" as="geometry"/>
                </mxCell>
                <mxCell id="6" value="Search by word/phrase&lt;br&gt;(ru/he/gr/SN)" style="ellipse;whiteSpace=wrap;html=1;" vertex="1" parent="1">
                    <mxGeometry x="230" y="270" width="140" height="70" as="geometry"/>
                </mxCell>
                <mxCell id="9" value="Find word occurences&lt;br&gt;(by SN)" style="ellipse;whiteSpace=wrap;html=1;" vertex="1" parent="1">
                    <mxGeometry x="440" y="160" width="140" height="70" as="geometry"/>
                </mxCell>
                <mxCell id="12" value="Morphological search" style="ellipse;whiteSpace=wrap;html=1;" vertex="1" parent="1">
                    <mxGeometry x="440" y="250" width="140" height="70" as="geometry"/>
                </mxCell>
                <mxCell id="14" value="Compare translations" style="ellipse;whiteSpace=wrap;html=1;" vertex="1" parent="1">
                    <mxGeometry x="440" y="340" width="140" height="70" as="geometry"/>
                </mxCell>
            </root>
        </mxGraphModel>
    </diagram>
    <diagram id="IUz0oNxBcpeXwqE36sBO" name="component">
        <mxGraphModel dx="1373" dy="346" grid="1" gridSize="10" guides="1" tooltips="1" connect="1" arrows="1" fold="1" page="1" pageScale="1" pageWidth="850" pageHeight="1100" math="0" shadow="0">
            <root>
                <mxCell id="0"/>
                <mxCell id="1" parent="0"/>
                <mxCell id="-RCpaw0ltIvLPZMFU4SO-1" value="«entity»&lt;br&gt;&lt;b&gt;Verse&lt;/b&gt;" style="html=1;" vertex="1" parent="1">
                    <mxGeometry x="-570" y="160" width="110" height="50" as="geometry"/>
                </mxCell>
                <mxCell id="-RCpaw0ltIvLPZMFU4SO-2" value="«entity»&lt;br&gt;&lt;b&gt;Book&lt;/b&gt;" style="html=1;" vertex="1" parent="1">
                    <mxGeometry x="-640" y="60" width="110" height="50" as="geometry"/>
                </mxCell>
                <mxCell id="-RCpaw0ltIvLPZMFU4SO-3" value="«entity»&lt;br&gt;&lt;b&gt;Word&lt;/b&gt;" style="html=1;" vertex="1" parent="1">
                    <mxGeometry x="-425" y="60" width="110" height="50" as="geometry"/>
                </mxCell>
                <mxCell id="-RCpaw0ltIvLPZMFU4SO-4" value="«agregate»&lt;br&gt;&lt;b&gt;Word occurrences&lt;/b&gt;" style="html=1;" vertex="1" parent="1">
                    <mxGeometry x="-450" y="290" width="110" height="50" as="geometry"/>
                </mxCell>
                <mxCell id="-RCpaw0ltIvLPZMFU4SO-5" value="«value»&lt;br&gt;&lt;b&gt;Translation&lt;/b&gt;" style="html=1;" vertex="1" parent="1">
                    <mxGeometry x="-315" y="210" width="110" height="50" as="geometry"/>
                </mxCell>
                <mxCell id="-RCpaw0ltIvLPZMFU4SO-13" value="1..*" style="endArrow=open;html=1;endSize=12;startArrow=diamondThin;startSize=14;startFill=1;edgeStyle=orthogonalEdgeStyle;align=left;verticalAlign=bottom;exitX=0.5;exitY=1;exitDx=0;exitDy=0;entryX=0.5;entryY=0;entryDx=0;entryDy=0;" edge="1" parent="1" source="-RCpaw0ltIvLPZMFU4SO-2" target="-RCpaw0ltIvLPZMFU4SO-1">
                    <mxGeometry x="1" y="15" relative="1" as="geometry">
                        <mxPoint x="-570" y="230" as="sourcePoint"/>
                        <mxPoint x="-410" y="230" as="targetPoint"/>
                        <mxPoint as="offset"/>
                    </mxGeometry>
                </mxCell>
                <mxCell id="-RCpaw0ltIvLPZMFU4SO-14" value="1..*" style="endArrow=open;html=1;endSize=12;startArrow=diamondThin;startSize=14;startFill=1;edgeStyle=orthogonalEdgeStyle;align=left;verticalAlign=bottom;exitX=1;exitY=0.5;exitDx=0;exitDy=0;entryX=0.5;entryY=1;entryDx=0;entryDy=0;" edge="1" parent="1" source="-RCpaw0ltIvLPZMFU4SO-1" target="-RCpaw0ltIvLPZMFU4SO-3">
                    <mxGeometry x="0.7575" y="-10" relative="1" as="geometry">
                        <mxPoint x="-570" y="230" as="sourcePoint"/>
                        <mxPoint x="-410" y="230" as="targetPoint"/>
                        <mxPoint as="offset"/>
                    </mxGeometry>
                </mxCell>
                <mxCell id="-RCpaw0ltIvLPZMFU4SO-15" value="1..*" style="endArrow=open;html=1;endSize=12;startArrow=diamondThin;startSize=14;startFill=0;edgeStyle=orthogonalEdgeStyle;align=left;verticalAlign=bottom;exitX=1;exitY=0.5;exitDx=0;exitDy=0;entryX=0.5;entryY=0;entryDx=0;entryDy=0;" edge="1" parent="1" source="-RCpaw0ltIvLPZMFU4SO-3" target="-RCpaw0ltIvLPZMFU4SO-5">
                    <mxGeometry x="1" y="10" relative="1" as="geometry">
                        <mxPoint x="-520" y="230" as="sourcePoint"/>
                        <mxPoint x="-360" y="230" as="targetPoint"/>
                        <mxPoint as="offset"/>
                    </mxGeometry>
                </mxCell>
                <mxCell id="rLBDVf4rwQWYYK0VnS61-1" value="1..*" style="endArrow=open;html=1;endSize=12;startArrow=diamondThin;startSize=14;startFill=1;edgeStyle=orthogonalEdgeStyle;align=left;verticalAlign=bottom;entryX=0.5;entryY=1;entryDx=0;entryDy=0;exitX=0;exitY=0.5;exitDx=0;exitDy=0;" edge="1" parent="1" source="-RCpaw0ltIvLPZMFU4SO-4" target="-RCpaw0ltIvLPZMFU4SO-1">
                    <mxGeometry x="0.7648" y="-5" relative="1" as="geometry">
                        <mxPoint x="-520" y="230" as="sourcePoint"/>
                        <mxPoint x="-360" y="230" as="targetPoint"/>
                        <mxPoint as="offset"/>
                    </mxGeometry>
                </mxCell>
            </root>
        </mxGraphModel>
    </diagram>
</mxfile>